<?xml version="1.0" encoding="UTF-8"?>
<svg id="Capa_2" data-name="Capa 2" xmlns="http://www.w3.org/2000/svg" viewBox="0 0 100 100">
  <defs>
    <style>
      .cls-1 {
        fill: none;
      }
    </style>
  </defs>
  <g id="Capa_1-2" data-name="Capa 1">
    <g>
      <g>
        <path d="M34.99,97.5c-3.01-.72-5.35-2.32-6.79-5.12-.6-1.17-.94-2.42-1.02-3.73-.28-4.74-.51-9.49-.78-14.24-.34-5.85-.71-11.7-1.05-17.56-.22-3.85-.41-7.7-.62-11.56-.18-3.39-.33-6.78-.57-10.17-.3-4.21,3.14-7.28,7.11-7.25,13.78,.08,27.55,.03,41.33,.03,4.34,0,7.21,3.1,6.96,7.44-.28,4.99-.51,9.99-.8,14.98-.4,6.99-.84,13.98-1.24,20.98-.22,3.82-.4,7.64-.6,11.46-.11,2.06-.15,4.14-.4,6.19-.5,4.09-2.72,6.86-6.64,8.22-.32,.11-.64,.22-.96,.32H34.99ZM51.9,31.87c-6.95,0-13.9,0-20.86,0-1.96,0-3.16,1.31-3.01,3.16,.12,1.41,.22,2.83,.3,4.25,.31,5.39,.62,10.78,.92,16.18,.31,5.45,.62,10.91,.93,16.36,.32,5.58,.63,11.16,.95,16.73,.14,2.47,2.04,4.57,4.46,5.01,1.32,.24,2.65,.15,3.97,.15,8.99,0,17.98,.01,26.97,0,3.3,0,5.82-1.98,6.02-4.85,.36-5.11,.64-10.23,.93-15.34,.22-3.76,.4-7.52,.61-11.28,.35-6.19,.71-12.39,1.07-18.58,.16-2.68,.25-5.37,.5-8.04,.23-2.51-.79-3.76-3.3-3.76-6.83,0-13.66,0-20.49,0Z"/>
        <path d="M52.72,2.5c3.06,0,4.85,1.57,5.29,4.02,.12,.7,.28,1.4,.35,2.1,.06,.58,.29,.7,.84,.6,2.76-.49,5.54-.94,8.3-1.41,1.43-.24,2.86-.49,4.29-.73,3.17-.54,6.14,1.27,7.06,4.33,.37,1.24,.56,2.53,.69,3.82,.14,1.42-.44,2.15-1.85,2.39-5.05,.88-10.1,1.74-15.15,2.6-9.25,1.58-18.49,3.15-27.74,4.72-3.71,.63-7.42,1.28-11.13,1.91-1.52,.26-2.39-.32-2.67-1.82-.27-1.45-.69-2.9-.56-4.39,.27-3,2.25-5.18,5.21-5.69,4.04-.71,8.09-1.38,12.14-2.06,1.18-.2,1.19-.22,.98-1.42-.19-1.12-.54-2.23-.31-3.39,.35-1.79,1.36-3.19,3.12-3.56,3.92-.84,7.89-1.44,11.15-2.02ZM24.3,21.09c-.02,1.4,.23,1.65,1.54,1.43,5.2-.89,10.4-1.78,15.6-2.67,7.82-1.33,15.63-2.66,23.45-3.99,3.22-.55,6.45-1.11,9.67-1.65,.62-.1,.82-.33,.69-1-.36-1.77-1.27-2.49-3.09-2.21-1.98,.3-3.95,.67-5.93,1-7.78,1.33-15.57,2.66-23.35,3.99-5.47,.93-10.95,1.86-16.42,2.8-1.29,.22-2.13,1.16-2.15,2.31Zm17.99-12.14c.14,.87,.27,1.66,.41,2.45,.08,.44,.34,.6,.8,.52,3.49-.61,6.98-1.2,10.47-1.79,.4-.07,.63-.22,.55-.67-.14-.76-.25-1.52-.4-2.27-.11-.57-.43-.85-1.06-.73-.88,.17-1.76,.29-2.64,.44-2.43,.42-4.85,.84-7.28,1.26-.52,.09-.87,.3-.85,.81Z"/>
        <path d="M31.01,41.34c-.19-2.58,.63-4.64,3.06-5.82,3.41-1.66,7.42,.72,7.63,4.51,.33,5.85,.63,11.71,.95,17.56,.37,6.75,.74,13.49,1.12,20.24,.12,2.22,.31,4.44,.34,6.65,.05,2.96-2.33,5.37-5.21,5.4-2.93,.03-5.31-2.26-5.46-5.19-.36-6.87-.75-13.74-1.12-20.61-.24-4.41-.48-8.81-.73-13.22-.18-3.17-.38-6.34-.57-9.52Zm9.17,41.61c-.07-.95-.16-1.88-.21-2.8-.31-5.54-.62-11.09-.92-16.63-.34-6.29-.65-12.57-.98-18.86-.08-1.42-.15-2.84-.3-4.24-.12-1.09-.71-1.56-1.63-1.46-.85,.1-1.29,.82-1.23,1.86,.24,3.94,.46,7.89,.67,11.83,.21,3.79,.39,7.58,.59,11.37,.3,5.42,.6,10.84,.91,16.26,.08,1.42,.13,2.84,.29,4.25,.1,.95,.74,1.47,1.52,1.41,.8-.06,1.27-.66,1.29-1.62,0-.46,0-.93,0-1.36Z"/>
        <path d="M72.73,41.65c-.31,5.36-.64,10.72-.94,16.08-.21,3.79-.38,7.58-.6,11.37-.3,5.36-.58,10.72-.94,16.08-.17,2.63-2.76,4.79-5.44,4.69-2.83-.1-5.22-2.37-5.19-5.15,.03-2.96,.25-5.92,.41-8.88,.15-2.74,.33-5.48,.49-8.22,.3-5.33,.61-10.66,.9-15.99,.21-3.79,.41-7.58,.59-11.37,.13-2.79,2.13-4.96,4.92-5.27,2.49-.28,4.98,1.48,5.65,3.99,.24,.88,.16,1.78,.15,2.67Zm-9.15,41.33c0,.69-.03,1.19,0,1.68,.05,.7,.47,1.14,1.16,1.25,.69,.11,1.19-.23,1.51-.84,.19-.37,.19-.77,.21-1.17,.07-1.7,.14-3.39,.24-5.09,.36-6.5,.72-13,1.08-19.5,.14-2.56,.28-5.11,.43-7.67,.21-3.66,.45-7.33,.64-10.99,.05-1-.49-1.64-1.32-1.7-.91-.07-1.49,.47-1.55,1.53-.31,5.24-.61,10.47-.9,15.71-.21,3.76-.39,7.52-.6,11.28-.29,5.24-.6,10.47-.89,15.51Z"/>
        <path d="M57.27,62.43c0,7.23,0,14.46,0,21.69,0,2.94-1.73,5.15-4.36,5.65-3.45,.66-6.4-1.87-6.43-5.61-.04-4.6-.01-9.21-.01-13.81,0-4.02,0-8.03,0-12.05,0-1.38,.66-2.27,1.71-2.39,1.15-.14,2.06,.56,2.22,1.73,.05,.36,.03,.74,.03,1.11,0,8.34,0,16.69,0,25.03,0,.34-.03,.69,.04,1.02,.17,.76,.67,1.17,1.46,1.14,.75-.03,1.2-.45,1.33-1.18,.06-.33,.04-.68,.04-1.02,0-14.21,0-28.43,0-42.64,0-.28,0-.56-.02-.83-.08-.83-.59-1.32-1.37-1.35-.83-.02-1.42,.47-1.47,1.33-.05,.8,0,1.61-.03,2.41-.03,1.35-.73,2.18-1.85,2.23-1.18,.05-2.03-.77-2.09-2.11-.04-1.02-.1-2.04,.06-3.05,.46-2.99,2.84-4.96,5.74-4.77,2.79,.18,4.95,2.52,4.97,5.5,.03,5.22,.01,10.44,.01,15.67,0,2.1,0,4.2,0,6.3Z"/>
        <path d="M48.49,52.32c-1.09,.01-1.97-.84-1.98-1.91,0-1.04,.9-1.92,1.98-1.92,1.05,0,1.89,.82,1.92,1.87,.03,1.07-.83,1.94-1.92,1.96Z"/>
      </g>
      <rect class="cls-1" width="100" height="100"/>
    </g>
  </g>
</svg>