<?xml version="1.0" encoding="UTF-8"?>
<svg id="Capa_2" data-name="Capa 2" xmlns="http://www.w3.org/2000/svg" viewBox="0 0 100 100">
  <defs>
    <style>
      .cls-1 {
        fill: none;
        opacity: .5;
      }
    </style>
  </defs>
  <g id="Capa_1-2" data-name="Capa 1">
    <g>
      <rect class="cls-1" width="100" height="100"/>
      <g>
        <path d="M42.97,92.69c-8.49,0-16.98,0-25.47,0-5.62,0-10.21-4.58-10.23-10.3-.04-11.71-.01-23.42-.01-35.13,0-5.05-.02-10.1,0-15.15,.04-5.75,4.73-10.52,10.47-10.55,9.38-.05,18.76-.02,28.13-.01,2.65,0,4.21,1.38,4.23,3.64,.02,2.31-1.6,3.84-4.27,3.85-8.82,.03-17.65,.01-26.47,.02-3.74,0-4.63,.88-4.63,4.59,0,15.76,0,31.52,0,47.28,0,3.5,1.06,4.55,4.58,4.55,15.7,0,31.41,0,47.11,0,3.59,0,4.74-1.17,4.74-4.83,0-8.82,0-17.65,0-26.47,0-2.1,.77-3.36,2.37-3.98,1.92-.74,4.05,.21,4.76,2.14,.27,.73,.36,1.5,.35,2.29,0,8.99,.03,17.98-.02,26.97-.02,3.95-1.55,7.23-4.9,9.5-1.55,1.05-3.23,1.62-5.15,1.61-8.55-.04-17.09-.02-25.64-.02Z"/>
        <path d="M37.58,59.9c.77-3.79,1.61-8.03,2.49-12.25,.13-.61,.63-1.03,1.07-1.46,8.82-8.82,17.65-17.63,26.44-26.47,.88-.89,1.45-1.04,2.41-.05,3.43,3.54,6.93,7.02,10.46,10.47,.96,.94,.85,1.53-.05,2.42-8.84,8.79-17.66,17.62-26.47,26.44-.61,.61-1.27,1.06-2.12,1.23-3.91,.78-7.81,1.59-11.73,2.33-1.62,.31-2.54-.55-2.51-2.65Z"/>
        <path d="M92.74,16.45c.06,2.15-.62,4.08-2.03,5.66-1.51,1.7-3.19,3.24-4.77,4.87-.6,.62-1.08,.58-1.67-.02-3.67-3.7-7.36-7.39-11.06-11.05-.66-.65-.66-1.17,0-1.81,1.43-1.39,2.81-2.84,4.25-4.22,2.76-2.65,6.54-3.3,10.01-1.78,3.24,1.43,5.28,4.66,5.27,8.35Z"/>
      </g>
    </g>
  </g>
</svg>