<?xml version="1.0" encoding="UTF-8"?>
<svg id="icon-maca" class="tv_svg-icon" data-name="Capa 2" xmlns="http://www.w3.org/2000/svg" viewBox="0 0 25 25">
  <g id="Capa_1-2" data-name="Capa 1">
    <g>
      <path d="M25,19.91c-.69,.69-1.39,1.37-2.08,2.06-.97,.97-1.94,1.93-2.9,2.91-.15,.15-.25,.17-.41,.01-1.09-1.04-2.2-2.07-3.28-3.11-.24-.23-.44-.31-.77-.19-.56,.2-1.15,.29-1.74,.37-.18,.03-.25-.03-.27-.21-.05-.55-.05-.55,.45-.62,1.93-.28,3.64-1.05,5.12-2.32,2.02-1.74,3.21-3.94,3.52-6.59,.62-5.25-2.8-10.09-7.96-11.2-3.31-.72-6.31,.06-8.89,2.26-1.92,1.64-3.06,3.73-3.43,6.22-.65,4.32,1.49,8.63,5.52,10.66,1.04,.53,2.15,.85,3.3,1,.2,.03,.26,.1,.24,.3-.08,.55-.07,.55-.64,.45-.54-.09-1.07-.2-1.59-.38-.16-.06-.26,0-.37,.11-.66,.62-1.32,1.24-1.97,1.86-.49,.46-.97,.92-1.45,1.38-.16,.16-.27,.18-.44,0-.37-.4-.76-.78-1.16-1.16-.13-.13-.13-.22,0-.34,.48-.45,.33-.44,.77-.02,.16,.15,.32,.31,.47,.47,.1,.11,.18,.12,.3,.01,.89-.85,1.79-1.69,2.68-2.54,.11-.1,.14-.15-.03-.23-1.72-.77-3.14-1.9-4.28-3.4-.12-.16-.19-.15-.32-.02-.7,.67-1.4,1.34-2.11,2-.17,.16-.15,.25,0,.41,.75,.74,1.49,1.49,2.24,2.22,.15,.15,.16,.24,0,.39-.38,.36-.37,.37-.75,0-.88-.88-1.75-1.76-2.63-2.63-.16-.16-.16-.25,0-.41,.93-.87,1.85-1.75,2.78-2.61,.15-.14,.17-.25,.07-.43-.92-1.57-1.42-3.26-1.51-5.08C1.19,6.39,4.53,1.91,9.21,.46c.7-.22,1.42-.36,2.15-.43C11.41,.03,11.45,.01,11.5,0c.65,0,1.3,0,1.96,0,.35,.05,.69,.09,1.04,.16,2.55,.49,4.68,1.72,6.36,3.69,1.7,1.99,2.57,4.32,2.63,6.94,.05,2.07-.47,4-1.52,5.79-.11,.18-.1,.28,.06,.43,1,.93,1.98,1.87,2.97,2.8v.1Zm-1.15-.05c0-.06-.05-.1-.09-.14-.73-.69-1.47-1.39-2.2-2.08-.13-.12-.2-.1-.31,.03-1.12,1.48-2.54,2.61-4.23,3.38-.17,.08-.22,.12-.05,.27,.89,.83,1.78,1.67,2.66,2.51,.11,.11,.19,.11,.3,0,1.27-1.28,2.54-2.55,3.82-3.82,.05-.05,.1-.09,.1-.16Z"/>
      <path d="M3.68,10.85c-.01,4.16,2.7,7.67,6.6,8.68,4.95,1.28,10.03-2,10.84-7.03,.5-3.08-.41-5.71-2.62-7.9-.05-.05-.09-.09-.14-.13-.42-.36-.41-.48,0-.86,.11-.1,.17-.03,.25,.03,.87,.72,1.58,1.57,2.15,2.55,.86,1.47,1.32,3.06,1.28,4.76-.07,3.79-1.78,6.65-5.1,8.52-1.46,.82-3.05,1.18-4.72,1.13-2.4-.08-4.5-.92-6.26-2.55-1.62-1.5-2.64-3.35-2.97-5.54-.44-2.92,.31-5.53,2.23-7.77,1.53-1.78,3.48-2.85,5.8-3.2,2.36-.36,4.57,.13,6.6,1.39,.17,.11,.19,.2,.08,.37-.29,.43-.28,.43-.74,.16-5.29-3.18-12.24,.07-13.18,6.16-.07,.46-.11,.92-.1,1.25Z"/>
      <path d="M12.07,17.64c0-.29,0-.59,0-.88,0-.14,.06-.21,.2-.21,.68,0,.59-.06,.59,.55,0,.46,0,.91,0,1.37,0,.2-.07,.27-.27,.27-.61-.01-.52,.06-.53-.52,0-.2,0-.39,0-.59h0Z"/>
      <path d="M11.33,16.65c-.09,.65-.18,1.25-.26,1.84-.02,.11-.07,.16-.18,.14-.16-.02-.32-.04-.48-.06-.1-.01-.13-.08-.12-.18,.09-.6,.18-1.21,.26-1.81,.02-.15,.1-.19,.23-.17,.11,.02,.23,.04,.34,.05,.16,.01,.25,.08,.21,.19Z"/>
      <path d="M14.13,18.69c-.16,.03-.22-.06-.24-.2-.08-.57-.16-1.14-.24-1.71-.02-.16,.02-.25,.19-.27,.62-.06,.55-.17,.64,.44,.07,.47,.13,.95,.2,1.42,.02,.16-.02,.25-.19,.26-.12,0-.24,.03-.36,.05Z"/>
      <path d="M12.45,22.04c-.14-.07-.4,.12-.39-.22,.02-.59,.01-.6,.42-.59,.37,0,.35-.09,.4,.55,.02,.37-.27,.19-.43,.26Z"/>
      <path d="M7.03,5.03c.1,.03,.16,.11,.22,.18,.3,.34,.29,.33,0,.67-.17,.19-.27,.18-.44,0-.38-.39-.41-.26,0-.68,.07-.07,.13-.15,.23-.18Z"/>
      <path d="M8.08,5.11c-.09,0-.12-.08-.16-.14-.36-.5-.42-.37,.12-.77,.18-.13,.27-.09,.38,.09,.26,.44,.21,.61-.27,.79-.02,0-.05,.02-.07,.02Z"/>
      <path d="M3.41,18.56c.14,.07,.22,.19,.33,.29,.23,.22,.23,.22,0,.45q-.33,.33-.66,0c-.22-.23-.23-.23,0-.45,.1-.1,.19-.23,.33-.29Z"/>
      <path d="M10.17,13.15c1.4-1.62,2.7-3.12,3.99-4.62,.77-.9,1.55-1.79,2.32-2.68,.46-.53,1.07-.63,1.53-.26,.49,.4,.49,1.02,0,1.58-2.28,2.6-4.55,5.21-6.83,7.81-.66,.75-1.15,.76-1.87,.04-.9-.9-1.8-1.8-2.7-2.7-.54-.54-.59-1.14-.14-1.58,.45-.44,1.04-.4,1.58,.15,.71,.73,1.4,1.48,2.12,2.26Z"/>
    </g>
  </g>
</svg>