<?xml version="1.0" encoding="UTF-8"?>
<svg id="Capa_2" data-name="Capa 2" xmlns="http://www.w3.org/2000/svg" viewBox="0 0 24.55 24.53">
  <g id="Capa_1-2" data-name="Capa 1">
    <g>
      <path d="M11.36,0h1.82s.04,.04,.07,.04c.37,0,.73,.08,1.1,.12,.26,.05,.53,.11,.79,.16,.24,.06,.48,.13,.72,.19,.48,.18,.96,.35,1.44,.53,.24,.11,.48,.23,.72,.34,.01,.04,.05,.05,.08,.05,.21,.12,.42,.25,.64,.37,.49,.33,.97,.68,1.44,1.05,0,.01,.02,.02,.03,.02,.21,.22,.44,.43,.68,.62,.03,.03,.06,.06,.09,.09,.21,.23,.41,.45,.62,.68,.01,.01,.03,.03,.04,.04,.36,.47,.72,.93,1.04,1.43,.12,.2,.24,.39,.36,.59,0,.07,.04,.14,.1,.18,.11,.22,.22,.45,.32,.67,.1,.24,.2,.47,.3,.71,.06,.25,.15,.48,.25,.72,.06,.24,.13,.48,.19,.72,.05,.24,.1,.48,.14,.72,.03,.22,.06,.44,.1,.67,0,0,0,.01,0,.02,0,.01,.01,.02,.02,.04,.06,.24,0,.48,.07,.72,0,.24,0,.48,.01,.72,0,.24,0,.48,0,.72-.06,.24-.04,.48-.06,.72-.08,.48-.14,.96-.26,1.44-.06,.24-.12,.48-.18,.71-.08,.24-.16,.48-.24,.72-.04,.03-.03,.07-.03,.11-.09,.2-.18,.41-.27,.61-.12,.24-.23,.48-.35,.72-.04,.07-.1,.13-.11,.22-.11,.16-.21,.31-.29,.49-.15,.23-.31,.46-.46,.69-.18,.23-.36,.46-.54,.69-.07,.04-.1,.12-.14,.18-.19,.18-.37,.38-.53,.59-.08,.05-.14,.11-.19,.19-.2,.17-.4,.33-.58,.53-.05,.04-.09,.08-.14,.11-.46,.37-.94,.72-1.43,1.04-.15,.09-.3,.19-.45,.28-.1,.03-.2,.07-.27,.15-.24,.11-.48,.23-.72,.34l-.48,.19c-.08,.03-.16,.06-.24,.1l-.72,.24c-.26,.07-.53,.14-.79,.21-.45,.09-.89,.18-1.35,.23-.18,.02-.38-.03-.55,.07h-1.87c-.01-.05-.05-.05-.09-.05-.62-.03-1.22-.15-1.82-.28-.24-.06-.48-.13-.72-.19-.24-.08-.48-.16-.72-.24-.48-.21-.96-.42-1.43-.64-.06-.08-.16-.11-.25-.14-.17-.1-.35-.2-.52-.3-.47-.33-.94-.66-1.39-1.03-.05-.04-.09-.07-.14-.11-.17-.2-.38-.36-.58-.53-.06-.06-.13-.13-.19-.19-.16-.21-.34-.4-.52-.59-.03-.04-.07-.09-.1-.13-.38-.46-.71-.95-1.05-1.44-.08-.17-.17-.34-.29-.49,0-.07-.03-.14-.1-.18-.13-.27-.26-.54-.39-.81-.06-.2-.13-.39-.23-.58,0-.04,0-.08-.03-.1-.08-.25-.17-.51-.25-.76-.06-.23-.12-.45-.18-.68-.05-.24-.09-.48-.14-.72l-.07-.57c.02-.06,0-.1-.04-.15,0-.24,.01-.48-.04-.72,0-.24,0-.48,0-.72,0-.24,0-.48,.01-.72,.03-.29,.05-.58,.08-.86,.08-.43,.16-.86,.24-1.29,.07-.24,.13-.48,.2-.72,.1-.23,.18-.47,.24-.72,.13-.23,.21-.47,.3-.71,.12-.24,.24-.48,.36-.72,.02-.04,.04-.09,.06-.13,.11-.19,.23-.39,.34-.58,.35-.48,.7-.96,1.05-1.44,.01-.01,.03-.03,.04-.04,.21-.23,.42-.46,.62-.68,.03-.03,.06-.06,.09-.09,.23-.2,.47-.39,.68-.62,.02-.01,.04-.03,.06-.04,.46-.36,.93-.71,1.42-1.02,.21-.13,.42-.25,.64-.38,.04,0,.07-.01,.08-.05,.24-.11,.48-.23,.72-.34,.48-.18,.96-.35,1.44-.53,.26-.07,.53-.14,.79-.21,.22-.05,.44-.09,.66-.14,.22-.03,.44-.03,.65-.09,.19-.05,.4,.02,.58-.09Zm11.83,15.09c.11-.22,.12-.47,.18-.71,.05-.24,.11-.48,.11-.73,.06-.24,.06-.48,.06-.72,.05-.04,0-.1,.02-.15,.03-.43,.05-.86-.03-1.29,.03-.24-.03-.48-.05-.72-.05-.24-.04-.49-.14-.72-.06-.5-.2-.97-.38-1.44-.05-.26-.16-.49-.27-.72-.09-.25-.19-.5-.34-.72-.1-.25-.24-.49-.39-.71-.1-.19-.2-.37-.34-.53-.03-.08-.07-.15-.14-.19-.15-.27-.36-.5-.56-.74-.11-.13-.21-.26-.32-.38-.35-.38-.71-.74-1.13-1.05-.02-.01-.04-.03-.05-.04-.2-.21-.43-.37-.67-.52-.08-.09-.18-.14-.29-.19-.13-.11-.28-.2-.43-.27-.23-.15-.47-.28-.72-.39,0,0-.02-.01-.03,0-.23-.15-.47-.25-.73-.33-.21-.13-.43-.19-.66-.25-.45-.17-.92-.3-1.4-.37-.25-.08-.51-.1-.77-.13-.24-.05-.48-.06-.72-.06-.41-.05-.83-.06-1.24-.02-.07,.01-.14-.04-.2,.02-.24,0-.48,.02-.72,.06-.24,.02-.49,.05-.72,.13-.5,.06-.97,.2-1.44,.37-.25,.05-.48,.16-.71,.26-.23,.1-.47,.18-.69,.32-.01,0-.02,0-.03,.01-.27,.12-.53,.26-.77,.42-.16,.08-.31,.16-.44,.29-.09,.03-.16,.08-.22,.15-.26,.16-.51,.35-.73,.56-.55,.41-1.02,.9-1.45,1.43-.2,.23-.41,.46-.56,.74-.09,.06-.13,.15-.18,.24-.11,.15-.22,.3-.29,.48-.16,.22-.29,.46-.4,.71-.15,.22-.24,.47-.34,.72-.1,.24-.22,.47-.27,.73-.1,.2-.1,.43-.18,.62-.12,.27-.17,.54-.21,.82-.08,.21-.09,.43-.12,.65-.04,.26-.1,.52-.07,.79-.06,.07-.03,.16-.03,.24-.05,.4-.02,.8,0,1.19,.05,.24,0,.48,.08,.72,0,.25,.07,.48,.11,.72,.09,.49,.22,.96,.37,1.43,.08,.24,.14,.5,.28,.72,.17,.51,.42,.99,.71,1.44,.09,.23,.24,.43,.39,.62l.06,.1c.28,.44,.61,.83,.96,1.21,.55,.61,1.17,1.16,1.86,1.62,.03,.02,.05,.04,.08,.06,.2,.16,.41,.29,.64,.41,.46,.29,.93,.53,1.44,.72,.23,.1,.46,.2,.71,.26,.47,.17,.95,.32,1.44,.38,.23,.08,.48,.1,.72,.13,.24,.05,.48,.06,.72,.06,.41,.06,.83,.06,1.24,.02,.07-.01,.14,.04,.2-.02,.24,0,.48-.03,.72-.06,.24-.02,.49-.05,.72-.13,.25-.01,.48-.08,.72-.16,.2-.04,.4-.08,.59-.18,.05,0,.1,.01,.13-.04,.25-.05,.48-.16,.71-.26,.52-.2,1.02-.45,1.49-.76,.2-.11,.41-.22,.58-.38,.03-.02,.05-.04,.08-.05,.26-.2,.53-.39,.79-.6,.78-.65,1.46-1.38,2.02-2.23,.04-.05,.07-.1,.11-.15,.13-.18,.26-.36,.34-.57,.3-.45,.54-.93,.71-1.44,.13-.22,.2-.47,.28-.72,.03-.1,.06-.19,.1-.29,.03-.14,.11-.28,.1-.43Z"/>
      <path d="M5.81,20c-.27-.06-.51-.18-.73-.35-.08-.08-.16-.16-.23-.25-.16-.22-.26-.46-.32-.72-.05-.24,0-.48,.02-.71,.08-.24,.34-.48,0-.72-.04-.12-.11-.23-.2-.33-.07-.13-.14-.26-.21-.39-.24-.46-.44-.94-.61-1.43-.06-.22-.13-.45-.19-.67-.05-.27-.1-.54-.15-.81-.03-.22-.06-.45-.09-.67,0-.25,0-.51,0-.76,0-.22,.01-.45,.02-.67,.05-.24,.09-.48,.09-.72,.05-.24,.1-.48,.15-.72,.07-.24,.14-.48,.21-.72,.02-.08,.05-.15,.07-.23,.09-.15,.15-.32,.2-.49,.12-.24,.24-.48,.36-.72,.07-.13,.14-.25,.21-.38,.07-.11,.15-.23,.22-.34,.35-.5,.75-.98,1.17-1.43,.45-.42,.93-.8,1.43-1.15,.15-.09,.3-.19,.44-.28,.1-.03,.19-.08,.27-.15,.24-.11,.48-.23,.72-.34l.52-.19c.07-.03,.13-.05,.2-.08,.24-.07,.48-.14,.72-.2,.24-.05,.48-.1,.72-.15,.18,.03,.35-.07,.53-.05,.03,0,.06,0,.09,0,.03,0,.06,0,.09-.01l.72-.03c.24,0,.48,0,.72,0,.23,.08,.49,.03,.72,.13,.13,.08,.18,.22,.24,.35,0,.22-.08,.38-.25,.51-.25,.13-.51-.03-.76,.02-.37-.09-.73-.06-1.1-.04-.11,.01-.22,.03-.33,.04-.5,.02-.98,.11-1.45,.27-.23,.03-.44,.12-.66,.21-.51,.18-.99,.42-1.44,.72-.22,.12-.43,.26-.62,.43-.05,0-.08,.05-.1,.09-.27,.18-.51,.38-.72,.62-.25,.21-.45,.46-.64,.72-.03,.03-.05,.06-.08,.1-.17,.19-.32,.4-.43,.63-.32,.44-.55,.92-.73,1.43-.1,.23-.2,.47-.23,.72-.05,.07-.07,.16-.08,.24-.03,.16-.06,.32-.1,.48-.06,.22-.09,.45-.1,.67-.01,.13-.03,.26-.04,.38-.02,.37-.04,.74,.04,1.1,0,.49,.1,.97,.24,1.44,.04,.25,.11,.49,.23,.72,.16,.52,.4,1,.7,1.44q.17,.35,.5,.26c.24-.05,.48-.04,.71,.01,.26,.07,.49,.21,.71,.36,.03,.03,.06,.06,.09,.09,.17,.21,.31,.45,.4,.71,.03,.24,.07,.47,.02,.71-.06,.26-.17,.5-.32,.72-.06,.07-.13,.13-.19,.2-.21,.18-.45,.31-.72,.38-.24,.04-.47,.06-.71,.01Zm-.01-1.06c.2,.15,.43,.16,.62,.04,.18-.12,.35-.3,.39-.55,0-.02,0-.05,0-.07-.06-.28-.18-.5-.49-.59-.26-.08-.49,0-.65,.18-.19,.21-.26,.47-.1,.74,.04,.12,.11,.21,.23,.25Z"/>
      <path d="M19.62,5.03c.17,.2,.28,.43,.38,.67,.03,.25,.08,.51,.01,.76-.04,.12-.06,.25-.12,.35-.12,.17-.08,.3,.05,.42,.08,.13,.16,.25,.24,.38,.05,.1,.11,.2,.16,.3,.22,.47,.47,.93,.62,1.43,.09,.23,.12,.49,.23,.72,.02,.25,.07,.48,.14,.72l.06,.72c.01,.24,.02,.48,.04,.72,0,.24,0,.48,0,.72-.07,.23-.05,.48-.09,.72-.05,.24-.1,.48-.14,.72-.06,.24-.13,.48-.19,.72-.05,.1-.09,.21-.11,.32-.06,.13-.11,.26-.17,.39-.11,.24-.23,.48-.34,.72-.26,.51-.6,.97-.93,1.43,0,0,0,0,0,0-.21,.24-.42,.48-.63,.72-.03,.03-.06,.06-.09,.09-.22,.2-.44,.39-.67,.59-.02,.01-.03,.03-.05,.04-.46,.35-.94,.67-1.44,.96-.48,.21-.96,.41-1.44,.62-.24,.07-.48,.14-.72,.2-.24,.05-.48,.1-.72,.15-.24,.02-.48,.05-.72,.07-.24,0-.48,.02-.71,.02-.24,0-.48,0-.72,0-.22-.08-.45-.05-.67-.09-.25-.05-.44-.16-.48-.44,.02-.35,.11-.46,.44-.55,.24,.01,.47,.1,.72,.07,.36,.09,.73,.05,1.1,.05,.11-.01,.22-.03,.34-.04,.25,0,.48-.03,.72-.1,.5-.05,.97-.21,1.44-.38,.25-.09,.5-.18,.72-.32,.14-.04,.26-.11,.38-.2,.13-.04,.23-.12,.34-.2,.26-.15,.51-.3,.72-.52,.57-.39,1.03-.89,1.44-1.44,.2-.22,.35-.47,.51-.72,.08-.15,.16-.29,.24-.44,.06-.11,.14-.21,.16-.33,.14-.2,.23-.43,.29-.67,.12-.24,.2-.5,.24-.77,.04-.02,.05-.06,.04-.1,.04-.19,.11-.37,.1-.57,.06-.24,.11-.47,.09-.72,.05-.09,.04-.19,.05-.29,.02-.38,.02-.77-.05-1.15-.02-.49-.12-.97-.27-1.44-.04-.25-.13-.49-.24-.72-.18-.53-.43-1.02-.75-1.48-.1-.32-.31-.15-.49-.12-.22,.04-.43,0-.65-.02-.26-.07-.49-.21-.71-.36-.05-.06-.11-.12-.16-.18-.17-.22-.28-.46-.35-.73-.05-.24-.03-.48,.01-.71,.08-.27,.2-.51,.38-.72,.04-.04,.07-.07,.11-.11,.2-.17,.43-.28,.67-.38,.23-.02,.46-.08,.69-.02,.29,.05,.55,.19,.79,.36,.05,.05,.1,.1,.15,.15Zm-.54,1.09c-.01-.34-.33-.66-.67-.66-.33,0-.68,.35-.67,.68,.01,.33,.35,.66,.67,.66,.35,0,.68-.34,.67-.68Z"/>
      <path d="M9.53,20.12c.11,.46-.2,.73-.56,.67-.29-.05-.41-.27-.38-.67,.03-.05,.07-.1,.1-.15,.23-.19,.47-.18,.71-.03,.04,.06,.09,.12,.13,.18Z"/>
      <path d="M16.02,4.31c-.05,.09-.1,.18-.15,.27-.24,.17-.48,.15-.72-.02-.04-.08-.08-.17-.13-.25,0-.15,.03-.3,.13-.43,.23-.2,.47-.17,.71-.03,.09,.14,.18,.29,.16,.46Z"/>
      <path d="M6.61,15.09c0-1.85,0-3.7,0-5.55,0-.31,.12-.5,.39-.64,.33-.17,.65-.37,.97-.55,.49-.24,.96-.51,1.43-.79,.23-.12,.46-.23,.66-.38,.04,0,.08,0,.1-.05,.23-.12,.46-.23,.67-.38,.18-.08,.37-.17,.53-.29,.07-.02,.14-.05,.19-.1,.24-.09,.44-.29,.71-.32,.27,.04,.48,.22,.73,.32,.05,.06,.12,.08,.19,.1,.16,.12,.34,.22,.53,.29,.22,.16,.46,.29,.71,.39,.02,.01,.04,.02,.06,.03,.21,.15,.44,.26,.67,.38,.48,.27,.96,.53,1.43,.8,.33,.18,.65,.37,.98,.54,.26,.14,.38,.33,.37,.63-.02,.41,0,.83,0,1.24,0,1.41,0,2.82,0,4.23,0,.29-.11,.48-.37,.61-.33,.18-.66,.37-.99,.56-.22,.1-.42,.21-.62,.35-.04,0-.08,0-.09,.05-.24,.13-.48,.26-.72,.39-.16,.09-.34,.15-.48,.28-.1,0-.16,.08-.24,.12-.48,.27-.96,.53-1.43,.8-.25,.1-.46,.28-.72,.34-.26-.07-.48-.23-.72-.34-.12-.07-.24-.16-.38-.2-.09-.1-.22-.15-.34-.19-.23-.15-.46-.29-.71-.39-.07-.06-.15-.12-.24-.13-.14-.12-.32-.19-.49-.28-.24-.13-.46-.28-.72-.39-.03-.02-.06-.04-.09-.05-.19-.14-.41-.24-.62-.35-.24-.14-.48-.27-.72-.41-.01,0-.03,0-.04-.01-.06-.08-.16-.11-.24-.15-.22-.11-.35-.27-.35-.52Zm7.83-6.76s-.03-.04-.06-.05c-.21-.14-.44-.27-.67-.37,0,0-.02-.01-.03-.01-.21-.15-.44-.28-.68-.38-.19-.15-.43-.24-.63-.37-.09-.06-.16-.03-.23,.04-.2,.09-.4,.2-.58,.33-.25,.1-.48,.25-.72,.39-.24,.13-.48,.26-.72,.39-.17,.08-.34,.15-.48,.27-.09,.02-.18,.06-.25,.13-.25,.12-.49,.24-.71,.4-.14,.04-.25,.13-.38,.2-.06,.03-.14,.03-.16,.12,.18,.1,.36,.19,.54,.29,.48,.26,.96,.52,1.43,.78,.47,.29,.95,.55,1.44,.81,.12,.08,.24,.15,.38,.2,.14,.07,.25,.26,.46,.14,.22-.13,.44-.26,.65-.38,.48-.23,.93-.5,1.39-.76,.47-.24,.94-.49,1.39-.77,.03,0,.05,0,.06-.04,0,0,0,0,0,0,.18-.09,.36-.18,.57-.29-.45-.25-.87-.47-1.29-.7-.05-.03-.1-.05-.15-.08-.18-.12-.35-.23-.56-.3h0Zm2.15,2.12c-.2,.1-.4,.2-.58,.33-.05,.02-.09,.04-.14,.06-.24,.13-.48,.27-.72,.4-.15,.08-.31,.14-.44,.25-.09,.05-.18,.1-.27,.15-.48,.27-.96,.53-1.45,.8-.26,.06-.25,.25-.22,.45,0,.25,0,.51,0,.76,0,.22,0,.45,0,.67,0,.25,0,.51,0,.76,0,.22,0,.45,0,.67,0,.25,0,.51,0,.76v.61c.1-.02,.17-.06,.24-.11,.48-.26,.96-.53,1.43-.79l.73-.41c.25-.11,.48-.24,.71-.4,.21-.09,.4-.2,.59-.33,.07,0,.14-.04,.18-.1,.09-.05,.19-.1,.28-.15,.06-.02,.05-.07,.05-.12,0-1.48,0-2.95,0-4.43q-.1-.02-.37,.14Zm-7.91,4.98c.22,.16,.46,.28,.71,.39,.21,.15,.44,.27,.67,.38,.57,.32,1.13,.64,1.72,.98,0-1.55,0-3.06,0-4.57-.03-.11-.14-.12-.23-.16-.48-.27-.96-.53-1.44-.8-.48-.27-.96-.53-1.43-.8-.04-.03-.08-.08-.14-.07-.19-.15-.41-.25-.62-.35-.09-.09-.21-.13-.34-.18,0,1.41,.01,2.79,0,4.18,0,.32,.08,.53,.39,.61,.04,.02,.09,.04,.13,.06,.18,.14,.38,.24,.59,.33Z"/>
    </g>
  </g>
</svg>