<?xml version="1.0" encoding="UTF-8"?>
<svg id="Capa_2" data-name="Capa 2" xmlns="http://www.w3.org/2000/svg" viewBox="0 0 25.02 24.37">
  <g id="Capa_1-2" data-name="Capa 1">
    <g>
      <path d="M23,0H2.02C.91,0,0,.91,0,2.02v3.66c0,.94,.65,1.72,1.51,1.95v15.53c0,.67,.54,1.22,1.22,1.22H22.29c.67,0,1.22-.55,1.22-1.22V7.62c.87-.23,1.51-1.01,1.51-1.95V2.02c0-1.11-.91-2.02-2.02-2.02ZM7.56,12.92c-.45,0-.82-.37-.82-.82v-2.22c0-.45,.37-.82,.82-.82h9.9c.45,0,.82,.37,.82,.82v2.22c0,.45-.36,.82-.82,.82H7.56Zm11.71,9.97c-.15,.08-.3,.16-.45,.23-.09,.05-.16,0-.2-.08-.28-.57-.56-1.13-.85-1.7-.07-.14-.03-.22,.1-.29,.11-.05,.21-.1,.32-.16,.15-.09,.25-.08,.3,.04,.3,.61,.58,1.17,.86,1.73,.05,.11,.03,.18-.07,.23Zm1.56-.89c-.52,.34-.41,.35-.75-.13-.12-.17-.23-.33-.34-.5,0,0,0,0,0,0-.17-.25-.34-.5-.52-.75-.09-.12-.07-.21,.05-.3,.58-.4,.47-.4,.83,.12,.27,.39,.53,.78,.81,1.16,.12,.17,.1,.27-.07,.39Zm1.6-1.25c-.1,.08-.19,.17-.28,.26-.12,.12-.22,.08-.32-.03-.4-.44-.8-.89-1.2-1.33-.11-.12-.12-.23,0-.34,.5-.41,.37-.46,.8,.01,.34,.37,.67,.74,1,1.1,.11,.12,.13,.22-.01,.34Zm1.68-15.07c0,.61-.5,1.11-1.11,1.11H2.02c-.61,0-1.11-.5-1.11-1.11V2.02c0-.61,.5-1.11,1.11-1.11H23c.61,0,1.11,.5,1.11,1.11v3.66Z"/>
      <path d="M2.36,2.63c.11,.03,.16,.12,.23,.19,.31,.35,.3,.34,0,.69-.17,.2-.28,.19-.46,0-.39-.4-.43-.27,0-.71,.07-.07,.13-.15,.24-.18Z"/>
      <path d="M3.45,2.71c-.09,0-.13-.09-.17-.15-.37-.52-.44-.39,.12-.79,.19-.13,.28-.09,.39,.09,.27,.45,.21,.63-.28,.82-.02,0-.05,.02-.07,.02Z"/>
      <path d="M21.94,6.03h-4.13c-.22,0-.41-.18-.41-.41s.18-.41,.41-.41h4.13c.18,0,.33-.15,.33-.33V2.23c0-.22,.18-.41,.41-.41s.41,.18,.41,.41v2.66c0,.63-.51,1.14-1.14,1.14Z"/>
    </g>
  </g>
</svg>