<?xml version="1.0" encoding="UTF-8"?>
<svg id="Capa_2" data-name="Capa 2" xmlns="http://www.w3.org/2000/svg" viewBox="0 0 90 90">
  <defs>
    <style>
      .cls-1 {
        fill: #11111f;
      }

      .cls-2 {
        fill: none;
      }
    </style>
  </defs>
  <g id="Capa_1-2" data-name="Capa 1">
    <g>
      <g>
        <path class="cls-1" d="M13.92,22.34c.41-2.32,1.4-4.34,3.18-5.92,1.8-1.6,3.91-2.49,6.34-2.49,7.98-.01,15.97-.02,23.95,0,5.23,.02,9.58,4.5,9.51,9.73-.02,1.33-1,2.41-2.26,2.47-1.42,.07-2.55-.86-2.66-2.25-.12-1.46-.52-2.76-1.65-3.78-1.01-.9-2.22-1.24-3.52-1.24-7.62-.01-15.24-.02-22.86,0-2.52,0-4.31,1.35-4.93,3.61-.15,.54-.2,1.11-.2,1.68,0,13.91,0,27.82,0,41.72,0,2.62,1.28,4.43,3.57,5.09,.56,.16,1.15,.21,1.74,.21,7.52,0,15.04,0,22.56,0,2.61,0,4.43-1.29,5.07-3.59,.13-.46,.16-.95,.22-1.43,.15-1.39,1.25-2.32,2.67-2.25,1.26,.06,2.25,1.14,2.27,2.47,.06,4.64-3.41,8.82-8,9.61-.14,.02-.27,.06-.41,.09H22.29c-1.96-.35-3.73-1.12-5.22-2.47-1.75-1.59-2.75-3.59-3.15-5.9V22.34Z"/>
        <path class="cls-1" d="M46.88,41.8c0-1.66,.01-3.31,0-4.97-.01-1.21,.55-2.04,1.63-2.52,3.78-1.7,7.56-3.38,11.34-5.08,1.1-.5,2.17-.49,3.27,0,3.78,1.7,7.56,3.38,11.34,5.08,1.08,.49,1.63,1.32,1.62,2.53-.02,3.15,.02,6.31-.01,9.46-.06,6.16-4.23,12.27-10.01,14.36-4.73,1.71-9.18,.91-13.11-2.24-3.54-2.84-5.55-6.6-6.01-11.1-.19-1.82-.03-3.67-.03-5.51-.01,0-.02,0-.04,0Zm24.26,.73c0-1.34-.02-2.47,.01-3.6,.01-.48-.15-.72-.59-.92-2.87-1.26-5.73-2.54-8.58-3.82-.34-.15-.63-.17-.98-.01-2.87,1.29-5.75,2.58-8.64,3.85-.41,.18-.56,.42-.56,.87,.02,2.1,.02,4.21,0,6.31-.01,3.21,1.04,6.01,3.2,8.4,2.79,3.09,7.35,3.82,10.88,1.64,2.76-1.71,4.35-4.27,5.01-7.42,.38-1.81,.21-3.67,.24-5.29Z"/>
        <path class="cls-1" d="M33.67,45.95c.79,0,1.58,0,2.36,0,.73-.01,1-.3,1.01-1.05,.02-.93-.22-1.25-.98-1.28-1.04-.05-2.09,.07-3.12-.28-2.11-.72-3.74-2.73-3.89-4.89-.17-2.56,.98-4.7,3.14-5.73,.44-.21,.62-.45,.62-.95,0-1.35,1.04-2.39,2.36-2.43,1.33-.04,2.44,.92,2.54,2.24,.03,.37,.14,.51,.5,.61,1.34,.36,2.04,1.36,1.93,2.69-.09,1.17-1.04,2.04-2.35,2.19-.93,.11-1.86,.04-2.79,.05-.51,0-.95,.08-1.01,.7-.04,.51,.36,.83,1.04,.84,1.07,.02,2.13-.05,3.17,.32,2.14,.75,3.68,2.82,3.76,5.09,.05,1.52-.03,2.99-.93,4.3-.7,1.02-1.62,1.74-2.77,2.17-.36,.13-.55,.3-.57,.73-.06,1.25-1.04,2.22-2.25,2.28-1.34,.07-2.44-.73-2.63-2-.08-.53-.31-.61-.75-.61-.85,0-1.7-.04-2.38-.69-.74-.71-1.01-1.73-.67-2.66,.36-.98,1.21-1.61,2.26-1.64,.79-.02,1.58,0,2.36,0,0,0,0,0,0,0Z"/>
        <path class="cls-1" d="M35.42,62.58c.81,0,1.61-.02,2.42,0,1.33,.03,2.38,1.03,2.44,2.3,.06,1.43-.84,2.52-2.26,2.63-1.77,.14-3.55,.14-5.32,0-1.34-.11-2.24-1.2-2.2-2.57,.04-1.28,1.06-2.31,2.38-2.35,.85-.03,1.69,0,2.54,0Z"/>
      </g>
      <rect class="cls-2" width="90" height="90"/>
    </g>
  </g>
</svg>