<?xml version="1.0" encoding="UTF-8"?>
<svg id="Capa_2" data-name="Capa 2" xmlns="http://www.w3.org/2000/svg" viewBox="0 0 90 90">
  <defs>
    <style>
      .cls-1 {
        fill: #11111f;
      }

      .cls-2 {
        fill: none;
      }
    </style>
  </defs>
  <g id="Capa_1-2" data-name="Capa 1">
    <g>
      <path class="cls-1" d="M14.22,34.09s.1,0,.15,0c.39,0,.42-.02,.4-.41,0-.3-.07-.61-.04-.89,.04-.56-.04-1.13,.09-1.68,.15-.61,.52-1.06,1.14-1.3,.34-.13,.68-.15,1.03-.15,4.43,0,8.86,0,13.32,0-.5-.28-.97-.55-1.45-.8-.7-.38-1.35-.82-1.95-1.34-.58-.5-1.18-1-1.64-1.62-.28-.37-.55-.75-.8-1.15-.44-.7-.66-1.48-.84-2.27-.12-.53-.22-1.07-.14-1.62,.12-.81,.3-1.6,.62-2.37,.33-.79,.79-1.5,1.37-2.12,.49-.53,1.09-.94,1.74-1.26,1.59-.77,3.27-.75,4.96-.49,.46,.07,.93,.17,1.39,.34,.27,.1,.6,.16,.85,.27,.38,.17,.77,.33,1.14,.55,.45,.26,.94,.44,1.37,.73,.53,.35,1.06,.68,1.58,1.04,.61,.42,1.19,.89,1.75,1.37,.66,.57,1.3,1.16,1.89,1.81,.52,.57,1.06,1.13,1.5,1.76,.49,.7,1.02,1.38,1.42,2.14,.05,.1,.1,.18,.21,.18,.09,0,.13-.08,.16-.16,.33-.74,.84-1.36,1.31-2,.55-.75,1.17-1.45,1.81-2.13,.61-.64,1.27-1.21,1.93-1.79,.97-.84,2.02-1.55,3.11-2.21,.75-.45,1.54-.83,2.35-1.16,.8-.33,1.62-.58,2.46-.74,1.06-.2,2.14-.22,3.21-.03,.74,.13,1.45,.39,2.12,.79,.7,.42,1.26,.95,1.75,1.58,.69,.88,1.1,1.87,1.36,2.95,.16,.67,.23,1.34,.14,2.02-.09,.73-.29,1.44-.59,2.13-.25,.57-.56,1.1-.94,1.6-.46,.6-1,1.13-1.56,1.64-.61,.55-1.3,1.01-1.99,1.45-.36,.23-.75,.44-1.15,.63-.14,.06-.27,.16-.39,.31,.2,0,.41,0,.61,0,4.21,0,8.41,0,12.62,0,.84,0,1.51,.28,1.92,1.02,.17,.3,.27,.64,.27,1,0,3.76,0,7.53,0,11.29,0,1.07-.83,2.03-1.97,2.02-.51,0-1.02,.01-1.54,0-.26,0-.35,.08-.34,.35,0,1.97,0,3.94,0,5.9,0,7.4,0,14.8,0,22.2,0,.81-.36,1.38-1,1.78-.29,.18-.66,.27-1.03,.27-3.77,0-7.53,0-11.3,0-.42,0-.84,.05-1.26,.05-.5,0-1.01-.06-1.52-.06-6.19,0-12.37,0-18.56,0-5.55,0-11.1,0-16.65,0-1,0-1.65-.48-2-1.35-.12-.3-.1-.63-.1-.95,0-5.79,0-11.59,0-17.38,0-3.45,0-6.91,0-10.36,0-.45,0-.44-.45-.45-.61-.01-1.23,.06-1.83-.05-.51-.09-.88-.39-1.17-.81-.25-.38-.31-.79-.31-1.23,0-2.8,0-5.6,.01-8.4,0-.28-.1-.39-.37-.36-.07,0-.14,0-.21,0,0-.02,0-.04,0-.05Zm8.25,24.19c0,4.29,0,8.57,0,12.86,0,.41,0,.41,.42,.41,4.74,0,9.48,0,14.22,0,.46,0,.46,0,.46-.46,0-5.59,0-11.17,0-16.76,0-2.95,0-5.9,0-8.86q0-.48-.48-.48c-4.72,0-9.44,0-14.16,0-.46,0-.46,0-.46,.46,0,4.28,0,8.55,0,12.83Zm45.53,0c0-4.22,0-8.43,0-12.65,0-.68,.13-.62-.63-.62-4.66,0-9.32,0-13.98,0-.12,0-.24,0-.36,.03-.09,.01-.14,.06-.13,.17,.05,.31,0,.62,0,.93,0,4.81,0,9.62,.03,14.44,.02,3.46,0,6.93,0,10.39,0,.09,.01,.18,0,.27-.07,.29,.06,.34,.32,.34,4.79,0,9.58,0,14.37,0,.3,0,.4-.09,.4-.39-.01-1.67,0-3.33,0-5,0-2.63,0-5.26,0-7.89Zm-26.5-5.76h0c0,6.22,0,12.45,0,18.67,0,.3,.11,.37,.39,.37,2.18,0,4.36,0,6.54,0q.55,0,.55-.55c0-2.81,0-5.62,0-8.43,0-4.92,0-9.84,0-14.76,0-4.63,0-9.26,0-13.88,0-.43,0-.43-.44-.43-2.19,0-4.38,0-6.57,0q-.46,0-.46,.46c0,6.18,0,12.37,0,18.55Zm-13.43-11.4h0c3.03,0,6.06,0,9.09,0,.26,0,.41-.04,.41-.36,0-2.29,0-4.58,0-6.87,0-.27-.09-.34-.35-.34-1.18,.01-2.36,0-3.54,0-4.89,0-9.78,0-14.67,0-.39,0-.4,.01-.4,.41,0,2.24,0,4.48,0,6.72q0,.43,.43,.43c3.01,0,6.02,0,9.03,0Zm34.31,0h0c3.05,0,6.1,0,9.16,0,.23,0,.31-.05,.31-.3,0-2.26,0-4.52,0-6.78,0-.48,0-.48-.47-.48-6.02,0-12.04,0-18.07,0-.41,0-.41,0-.41,.43,0,2.24,0,4.48,0,6.72q0,.41,.41,.41c3.02,0,6.04,0,9.07,0Zm-21.27-12.94c.35,0,.7,0,1.05,0,.25,0,.36-.07,.21-.31-.19-.31-.34-.64-.51-.97-.28-.55-.63-1.06-.98-1.56-.48-.69-1.04-1.33-1.61-1.96-.73-.82-1.56-1.54-2.42-2.21-.59-.46-1.21-.87-1.86-1.25-.67-.39-1.35-.76-2.07-1.02-.75-.28-1.53-.52-2.35-.57-.66-.04-1.28,.08-1.87,.43-.47,.28-.74,.71-.97,1.17-.34,.67-.48,1.38-.25,2.1,.36,1.11,1.15,1.93,2.05,2.63,.92,.71,1.95,1.23,3,1.72,.6,.28,1.25,.48,1.89,.67,.42,.12,.84,.26,1.26,.38,1.21,.34,2.45,.48,3.68,.68,.57,.09,1.16,.1,1.74,.09Zm8.27,0c.72-.03,1.47-.06,2.23-.17,1.08-.16,2.15-.32,3.2-.61,.9-.25,1.79-.52,2.66-.86,.85-.33,1.66-.72,2.43-1.19,.54-.34,1.11-.65,1.53-1.14,.28-.32,.6-.59,.86-.94,.32-.41,.58-.84,.71-1.32,.26-.95-.01-1.83-.58-2.6-.64-.87-1.58-1.1-2.61-1.02-.74,.06-1.45,.27-2.14,.52-1.18,.43-2.26,1.04-3.28,1.75-.5,.35-1.01,.71-1.46,1.13-.57,.53-1.16,1.05-1.69,1.64-.55,.61-1.11,1.22-1.58,1.9-.3,.43-.61,.86-.88,1.31-.26,.43-.47,.88-.7,1.32-.09,.17-.04,.26,.17,.26,.36,0,.72,0,1.13,0Z"/>
      <rect class="cls-2" width="90" height="90"/>
    </g>
  </g>
</svg>