<?xml version="1.0" encoding="UTF-8"?>
<svg id="Capa_2" data-name="Capa 2" xmlns="http://www.w3.org/2000/svg" viewBox="0 0 90 90">
  <defs>
    <style>
      .cls-1 {
        fill: none;
      }
    </style>
  </defs>
  <g id="Capa_1-2" data-name="Capa 1">
    <g>
      <g>
        <path d="M38.53,52.95c3.07,.37,5.22,1.99,6.46,4.82,.23,.53,.56,.74,1.15,.73,4.59-.03,9.19-.03,13.78-.04,1.41,0,1.42,0,1.42-1.37,0-8.92,0-17.84,0-26.77,0-1.6,0-3.19-.01-4.79-.02-1.57-.58-2.04-2.16-2.02-3.09,.03-6.17,.01-9.26,.01-8.35,0-16.7,0-25.05,0-1.14,0-1.59,.43-1.8,1.58-.2,1.13-.58,1.51-1.4,1.41-.83-.1-1.19-.74-1.04-1.83,.31-2.25,1.88-3.64,4.16-3.64,11.58,0,23.17,0,34.76,0,2.52,0,4.18,1.64,4.27,4.17,.03,.86,.08,1.74,0,2.59-.09,1,.33,1.23,1.26,1.22,3.73-.04,7.46,.02,11.19-.03,1.85-.03,3.07,.71,3.88,2.38,2.15,4.4,4.36,8.76,6.56,13.13,.55,1.1,.83,2.24,.84,3.46,.02,3.1,.05,6.19,.05,9.29,0,2.24-1.37,3.62-3.6,3.65-.73,.01-1.46,0-2.2,0-1.51,0-1.48,.01-1.79,1.46-.7,3.2-2.6,5.38-5.77,6.25-4.67,1.28-9.28-1.74-10.03-6.58-.14-.89-.43-1.16-1.3-1.15-5.29,.03-10.59,.04-15.88,0-.94,0-1.31,.26-1.49,1.23-1.05,5.8-6.99,8.55-12.08,5.62-2.23-1.28-3.41-3.33-3.78-5.82-.12-.81-.44-1.05-1.21-1.03-1.4,.04-2.8,.02-4.19,0-2.44-.04-3.69-2.4-3.64-4.22,.02-.67,.29-1.26,1.11-1.27,.8-.01,1.19,.43,1.33,1.2,.28,1.59,.59,1.85,2.15,1.85,1.3,0,2.6-.02,3.9,0,.57,0,.92-.22,1.15-.75,1.16-2.69,3.24-4.22,6.1-4.69,.78-.13,1.47-.15,2.17-.07Zm25.29-7.97c0,4.13,0,8.25,0,12.38,0,.34-.16,.84,.29,.96,.49,.12,.53-.42,.66-.72,2.03-4.84,8.93-6.42,12.97-2.5,.5,.49,1.03,.9,1.23,1.6,.42,1.48,1.4,2.05,2.91,1.77,.42-.08,.86-.01,1.3-.02,1.79-.01,1.99-.24,1.8-2.05-.01-.13-.06-.27-.04-.39,.37-2.45,.1-4.91,.14-7.37,.02-1.32-.02-1.34-1.34-1.34-4.29,0-8.59-.02-12.88,.01-.82,0-1.12-.29-1.11-1.11,.03-3.23,0-6.46,.02-9.69,0-1.09,.53-1.73,1.32-1.63,.99,.12,1.15,.84,1.15,1.68-.01,2.36,.02,4.73-.02,7.09-.02,.83,.19,1.2,1.1,1.18,3.19-.04,6.39,0,9.59-.02,1.06,0,1.13-.12,.65-1.08-1.84-3.69-3.71-7.37-5.52-11.08-.43-.88-1.01-1.19-1.96-1.19-3.69,.03-7.39,.04-11.08,0-.94-.01-1.19,.32-1.18,1.22,.04,4.09,.02,8.19,.02,12.28Zm8.35,10.34c-1.9,.1-3.48,.86-4.59,2.4-1.55,2.17-1.33,4.94,.44,6.88,1.75,1.91,4.55,2.41,6.72,1.2,2.36-1.32,3.49-4,2.71-6.55-.38-1.25-1.18-2.19-2.23-2.97-.87-.63-1.68-.97-3.05-.97Zm-34.5,11.11c2.33,0,4.52-1.58,5.24-3.77,.75-2.27,0-4.89-1.93-6.15-.32-.21-.54-.43-1.84-.94-2.65-.73-4.85,.43-6.16,2.33-1.22,1.76-1.28,3.69-.26,5.58,1.05,1.95,2.71,2.96,4.95,2.96Z"/>
        <path d="M17.51,50.25c2.92,0,5.85,0,8.77,0,.7,0,1.36,.12,1.55,.94,.21,.91-.33,1.48-1.48,1.5-1.99,.03-3.98,.01-5.97,.01-3.76,0-7.51,0-11.27,0-.33,0-.67-.01-.98-.1-.58-.17-.89-.6-.85-1.2,.04-.59,.36-1.02,.96-1.11,.49-.07,.99-.06,1.49-.06,2.59,0,5.18,0,7.78,0,0,0,0,.01,0,.02Z"/>
        <path d="M26.41,29.64c2.86,0,5.71,0,8.57,0,.54,0,1.08,0,1.43,.52,.47,.68,.17,1.61-.64,1.85-.34,.1-.72,.1-1.08,.1-5.55,0-11.1,0-16.64,0-.27,0-.54,.01-.8-.03-.74-.12-1.27-.51-1.17-1.33,.09-.75,.57-1.16,1.37-1.16,2.99,0,5.98,0,8.97,0,0,.01,0,.03,0,.04Z"/>
        <path d="M23.62,45.87c-2.83,0-5.65,0-8.48,0-.4,0-.81,.04-1.16-.21-.44-.32-.65-.76-.53-1.3,.12-.54,.44-.88,1.02-.92,.23-.02,.46-.02,.7-.02,5.68,0,11.37,0,17.05,0,.27,0,.53,0,.8,.03,.59,.06,.89,.44,.97,.98,.08,.58-.14,1.05-.72,1.28-.44,.18-.91,.17-1.38,.17-2.76,0-5.52,0-8.28,0Z"/>
        <path d="M18.41,39.11c-2.86,0-5.73,0-8.59,0-.54,0-1.08-.02-1.43-.53-.49-.72-.12-1.69,.74-1.88,.32-.07,.66-.06,.99-.06,5.53,0,11.05,0,16.58,0,.2,0,.4,0,.6,0,.95,.05,1.52,.54,1.45,1.29-.08,.86-.64,1.18-1.45,1.17-2.96,0-5.93,0-8.89,0Z"/>
        <path d="M7.12,43.41c1.06,0,2.13,0,3.19,0,.8,0,1.28,.37,1.32,1.17,.04,.78-.46,1.19-1.16,1.22-2.29,.12-4.58,.12-6.87,0-.7-.04-1.21-.44-1.18-1.22,.04-.8,.51-1.18,1.31-1.18,1.13,0,2.26,0,3.39,0,0,0,0,0,0,0Z"/>
        <path d="M10.99,29.64c.46,0,.93-.03,1.39,0,.69,.05,1.12,.44,1.18,1.12,.07,.71-.35,1.15-1.01,1.25-1.05,.17-2.12,.15-3.17,.02-.67-.09-1.04-.54-1-1.26,.04-.71,.43-1.1,1.12-1.14,.5-.03,.99,0,1.49,0Z"/>
      </g>
      <rect class="cls-1" width="90" height="90"/>
    </g>
  </g>
</svg>