<?xml version="1.0" encoding="UTF-8"?>
<svg id="Capa_2" data-name="Capa 2" xmlns="http://www.w3.org/2000/svg" viewBox="0 0 24.79 24.79">
  <g id="Capa_1-2" data-name="Capa 1">
    <g>
      <path d="M18.75,24.79c-1.49,0-2.98,0-4.48,0-.97,0-1.5-.55-1.5-1.52,0-3,0-6.01,0-9.01,0-.38,.08-.73,.35-1.03,.3-.33,.67-.46,1.1-.46,2.58,0,5.17,0,7.75,0,.46,0,.91,0,1.37,0,.88,0,1.44,.55,1.45,1.43,0,2.58,0,5.17,0,7.75,0,.44,0,.88,0,1.32,0,.98-.54,1.52-1.53,1.52-1.5,0-3,0-4.51,0Zm.03-.87c1.38,0,2.76,0,4.14,0,.89,0,1-.11,1-.99,0-2.02,0-4.05,0-6.07,0-.83,0-1.66,0-2.49,0-.55-.17-.71-.72-.73-.05,0-.09,0-.14,0-2.87,0-5.74,0-8.62,0-.64,0-.8,.16-.81,.79,0,.16,0,.32,0,.48,0,.98,0,1.96,0,2.94,0,1.74,0,3.49,0,5.23,0,.7,.15,.84,.86,.85,.07,0,.15,0,.22,0,1.35,0,2.7,0,4.06,0Z"/>
      <path d="M18.78,12.02c-1.52,0-3.04,0-4.56,0-.86,0-1.45-.57-1.45-1.43,0-3.03,0-6.07,0-9.1,0-.92,.56-1.49,1.48-1.49,3.02,0,6.05,0,9.07,0,.9,0,1.47,.57,1.47,1.47,0,2.52,0,5.04,0,7.56,0,.5,0,1.01,0,1.51,0,.92-.57,1.48-1.5,1.48-1.5,0-3,0-4.51,0Zm.01-11.16s0,0,0,0c-1.46,0-2.93,0-4.39,0-.58,0-.76,.16-.77,.74,0,2.93,0,5.86,0,8.79,0,.58,.17,.75,.76,.75,2.91,0,5.82,0,8.73,0,.64,0,.79-.16,.79-.8,0-1.23,0-2.46,0-3.69,0-1.68,0-3.36,0-5.04,0-.57-.19-.75-.76-.75-1.46,0-2.91,0-4.37,0Z"/>
      <path d="M0,18.78c0-1.5,0-3,0-4.51,0-.96,.55-1.5,1.52-1.5,3.01,0,6.03,0,9.04,0,.88,0,1.46,.58,1.46,1.46,0,3.02,0,6.05,0,9.07,0,.92-.57,1.49-1.48,1.49-3,0-5.99,0-8.99,0-1,0-1.55-.54-1.55-1.53,0-1.49,0-2.99,0-4.48Zm.87,0s0,0,0,0c0,1.46,0,2.91,0,4.37,0,.59,.17,.78,.76,.78,2.87,0,5.75,0,8.62,0,.79,0,.91-.12,.91-.91,0-2.85,0-5.69,0-8.54,0-.15-.01-.3-.05-.44-.05-.19-.16-.31-.36-.34-.14-.02-.28-.04-.42-.04-2.06,0-4.12,0-6.19,0-.86,0-1.72,0-2.57,0-.53,0-.7,.2-.7,.72,0,1.47,0,2.95,0,4.42Z"/>
      <path d="M12.02,5.98c0,1.49-.02,2.99,0,4.48,.02,.92-.65,1.58-1.57,1.57-3-.03-6.01-.01-9.01-.01-.86,0-1.45-.58-1.45-1.43C0,7.56,0,4.52,0,1.49,0,.57,.57,0,1.49,0,4.53,0,7.57,0,10.61,0c.83,0,1.41,.59,1.41,1.42,0,1.52,0,3.04,0,4.56h0Zm-11.15,0s0,0,0,0c0,1.46,0,2.93,0,4.39,0,.59,.18,.77,.77,.77,2.91,0,5.82,0,8.73,0,.64,0,.79-.15,.79-.8,0-1.66,0-3.32,0-4.98,0-1.26,0-2.52,0-3.78,0-.54-.2-.73-.73-.73-2.96,0-5.91,0-8.87,0-.5,0-.69,.18-.69,.67,0,1.48,0,2.97,0,4.45Z"/>
      <path d="M18.77,22.82c-.86,0-1.72,0-2.57,0-.51,0-.66-.15-.62-.66,.1-1.31,.21-2.62,.32-3.93,.02-.22,.03-.45,.06-.67,.05-.31,.18-.4,.49-.42,.22-.01,.49,.1,.64-.06,.14-.15,.04-.41,.05-.62,.04-.71,.69-1.3,1.4-1.28,.12,0,.25,.02,.36,0,.77-.15,1.54,.68,1.51,1.43-.02,.62-.05,.54,.53,.54,.51,0,.65,.12,.69,.63,.12,1.4,.23,2.8,.34,4.21,0,.04,0,.07,0,.11,.02,.61-.08,.72-.69,.73-.84,0-1.68,0-2.52,0Zm0-.87c.64,0,1.29,0,1.93,0,.36,0,.38,0,.35-.36-.09-1.1-.18-2.19-.27-3.29-.01-.14,0-.3-.21-.29-.21,0-.16,.17-.16,.29,0,.19-.04,.35-.23,.44-.31,.15-.65-.04-.64-.4,0-.28-.09-.36-.36-.34-.25,.02-.5,0-.76,0-.4,0-.4,0-.43,.39-.02,.22-.14,.34-.34,.38-.2,.04-.37-.02-.48-.21-.06-.1-.05-.22-.05-.33,0-.12,0-.23-.17-.23-.17,0-.2,.1-.2,.24,0,.15-.02,.3-.03,.45-.08,.97-.17,1.93-.25,2.9-.03,.35-.01,.36,.35,.36,.64,0,1.29,0,1.93,0Zm.02-4.81c.09,0,.19,0,.28,0,.5,0,.52-.03,.46-.52-.05-.35-.25-.57-.56-.58-.13,0-.26,0-.39,0-.27,0-.43,.15-.52,.38-.07,.17-.05,.35-.06,.52,0,.14,.06,.2,.2,.2,.2,0,.39,0,.59,0Z"/>
      <path d="M10.44,6.01c-.01,2.42-1.87,4.29-4.18,4.42-2.61,.15-4.68-1.94-4.69-4.45,0-2.29,1.98-4.37,4.24-4.41,2.59-.04,4.59,1.88,4.63,4.43Zm-7.99-.05c.07,2.05,1.48,3.55,3.5,3.59,2.04,.04,3.62-1.52,3.6-3.56-.02-2-1.49-3.53-3.58-3.52-1.98,0-3.41,1.49-3.52,3.49Z"/>
      <path d="M7.25,6.64c0,.17,0,.34,0,.5-.01,.34-.16,.5-.5,.5-.18,0-.3,.03-.4,.21-.14,.25-.5,.25-.68,0-.11-.15-.22-.22-.41-.22-.3,0-.49-.18-.48-.43,0-.26,.2-.43,.51-.43,.29,0,.58,0,.87,0,.14,0,.24-.03,.23-.2-.01-.17-.14-.16-.25-.14-.31,.06-.61,0-.92-.01-.29-.01-.43-.15-.44-.43,0-.37-.01-.75,0-1.12,.01-.34,.17-.49,.51-.49,.17,0,.28-.04,.37-.21,.15-.27,.53-.27,.7,0,.1,.16,.22,.2,.39,.21,.31,.01,.5,.19,.5,.45,0,.25-.21,.42-.52,.42-.27,0-.54,0-.81,0-.13,0-.28-.02-.27,.19,0,.21,.17,.17,.29,.16,.3-.03,.59-.03,.89,0,.29,.04,.41,.16,.42,.46,0,.2,0,.39,0,.59h0Z"/>
    </g>
  </g>
</svg>