<?xml version="1.0" encoding="UTF-8"?>
<svg id="Capa_2" data-name="Capa 2" xmlns="http://www.w3.org/2000/svg" viewBox="0 0 90 90">
  <defs>
    <style>
      .cls-1 {
        fill: #11111f;
      }

      .cls-2 {
        fill: none;
      }
    </style>
  </defs>
  <g id="Capa_1-2" data-name="Capa 1">
    <g>
      <g>
        <path class="cls-1" d="M17.98,45.03c-.05-2.72,.97-4.91,2.89-6.57,1.83-1.58,2.44-3.38,2.39-5.77-.12-5.66,3.73-9.48,9.42-9.37,2.33,.05,4.03-.61,5.66-2.32,3.93-4.11,9.22-4.11,13.13-.02,1.62,1.69,3.32,2.38,5.67,2.34,5.8-.11,9.54,3.67,9.42,9.48-.05,2.29,.63,3.96,2.28,5.54,4.2,4.04,4.23,9.18,.06,13.2-1.69,1.63-2.39,3.32-2.34,5.67,.13,5.83-3.6,9.53-9.46,9.41-2.28-.05-3.95,.63-5.55,2.28-4.1,4.25-9.2,4.23-13.31-.03-1.55-1.61-3.17-2.3-5.42-2.25-5.95,.12-9.7-3.63-9.58-9.62,.05-2.26-.6-3.94-2.29-5.39-2.02-1.73-3.07-3.98-2.99-6.59Zm26.98-21.35c-1.55-.08-2.43,1.02-3.32,1.99-2.18,2.36-4.84,3.5-8.05,3.37-.38-.01-.76,0-1.15,0-2.49,.06-3.57,1.01-3.44,3.52,.21,3.96-1.08,7.14-4.03,9.81-2.02,1.84-1.98,3.54,.08,5.38,2.91,2.58,4.23,5.7,3.91,9.54,0,.09,0,.19,0,.29,.07,2.32,1.04,3.38,3.36,3.3,3.96-.15,7.27,.99,9.94,4.07,1.68,1.94,3.6,1.93,5.3-.02,2.64-3.03,5.89-4.19,9.81-4.05,2.49,.09,3.51-.95,3.43-3.48-.12-3.86,.99-7.08,3.98-9.69,2.03-1.77,2.05-3.67,.05-5.4-3.04-2.64-4.17-5.9-4.04-9.81,.08-2.43-.97-3.56-3.35-3.42-4.07,.24-7.4-1.04-10-4.2-.63-.76-1.47-1.21-2.5-1.2Z"/>
        <path class="cls-1" d="M36.98,55.81c-1.26,0-2.07-.54-2.59-1.47-.51-.9-.45-1.85,.07-2.73,.24-.4,.59-.75,.92-1.09,5.02-5.03,10.05-10.06,15.08-15.09,.54-.54,1.09-1.08,1.88-1.24,1.19-.24,2.18,.12,2.89,1.11,.69,.94,.69,1.97,.15,2.97-.22,.41-.57,.76-.91,1.1-5.06,5.07-10.12,10.13-15.18,15.19-.69,.69-1.42,1.28-2.32,1.26Z"/>
        <path class="cls-1" d="M34.06,38.2c.01-2.28,1.81-4.07,4.09-4.08,2.37-.01,4.19,1.81,4.17,4.16-.03,2.27-1.83,4.08-4.11,4.1-2.35,.02-4.16-1.81-4.15-4.18Z"/>
        <path class="cls-1" d="M55.74,51.7c0,2.29-1.79,4.09-4.07,4.1-2.37,.02-4.2-1.79-4.19-4.14,.01-2.32,1.91-4.17,4.23-4.12,2.29,.04,4.03,1.84,4.03,4.16Z"/>
      </g>
      <rect class="cls-2" width="90" height="90"/>
    </g>
  </g>
</svg>