<?xml version="1.0" encoding="UTF-8"?>
<svg id="Capa_2" data-name="Capa 2" xmlns="http://www.w3.org/2000/svg" xmlns:xlink="http://www.w3.org/1999/xlink" viewBox="0 0 100 100">
  <defs>
    <style>
      .cls-1 {
        opacity: .5;
      }

      .cls-2 {
        fill: url(#Degradado_sin_nombre_27);
      }
    </style>
    <linearGradient id="Degradado_sin_nombre_27" data-name="Degradado sin nombre 27" x1="30.38" y1="56.18" x2="102.89" y2="33.34" gradientUnits="userSpaceOnUse">
      <stop offset="0" stop-color="#c4d600"/>
      <stop offset="1" stop-color="#88bf00"/>
    </linearGradient>
  </defs>
  <g id="Capa_1-2" data-name="Capa 1">
    <g>
      <circle class="cls-2" cx="50" cy="50" r="50"/>
      <g class="cls-1">
        <path d="M49.97,75.21c-8.81,0-17.62,0-26.43,0-2.47,0-4.45-1.36-5.28-3.61-.2-.54-.3-1.11-.3-1.69,0-13.57,0-27.14,0-40.71,0-2.52,1.91-4.76,4.41-5.19,.43-.07,.86-.1,1.29-.1,17.55,0,35.1,0,52.66,0,1.71,0,3.19,.53,4.34,1.83,.85,.96,1.34,2.09,1.34,3.38,0,5.41,0,10.83,0,16.24,0,8.11,0,16.23,0,24.34,0,2.28-1.06,3.92-3.06,4.96-.79,.41-1.66,.54-2.55,.54-8.81,0-17.62,0-26.43,0Zm.01-4.36c8.36,0,16.72,0,25.08,0,.54,0,1.09,0,1.63,0,.54-.01,.96-.44,.99-.99,0-.1,0-.2,0-.3,0-13.33,0-26.65,0-39.98,0-.1,0-.2,0-.3,0-.27-.12-.48-.29-.68-.28-.3-.63-.32-1-.32-17.59,0-35.19,0-52.78,0-.12,0-.24,0-.36,0-.49,.03-.91,.45-.94,.94,0,.1,0,.2,0,.3,0,13.36,0,26.72,0,40.07,0,.11,0,.22,0,.33,.05,.47,.47,.88,.94,.91,.15,0,.3,0,.45,0,8.76,0,17.52,0,26.28,0Z"/>
        <path d="M49.97,66.68c-7.61,0-15.22,0-22.83,0-.11,0-.22,0-.33,0-.23,.01-.31-.09-.31-.33,0-1.97,0-3.93,0-5.9,0-.19,.07-.32,.2-.45,3.42-3.42,6.85-6.84,10.26-10.26,.18-.18,.29-.17,.46,0,1.62,1.62,3.24,3.23,4.86,4.85,.21,.21,.32,.19,.53,0,5.49-5.5,10.99-10.99,16.49-16.49q.31-.31,.63,0c4.44,4.44,8.88,8.88,13.33,13.32,.18,.18,.25,.36,.25,.61,0,4.73,0,9.46,0,14.18,0,.46,0,.47-.47,.47-7.68,0-15.36,0-23.05,0Z"/>
        <path d="M26.5,38.9c0-3.56,2.85-6.41,6.42-6.42,3.57,0,6.44,2.86,6.44,6.44,0,3.53-2.91,6.43-6.44,6.42-3.54,0-6.42-2.9-6.42-6.44Z"/>
      </g>
    </g>
  </g>
</svg>