<?xml version="1.0" encoding="UTF-8"?>
<svg id="Capa_2" data-name="Capa 2" xmlns="http://www.w3.org/2000/svg" xmlns:xlink="http://www.w3.org/1999/xlink" viewBox="0 0 300 250">
  <defs>
    <style>
      .cls-1 {
        opacity: .5;
      }

      .cls-2 {
        fill: url(#Degradado_sin_nombre_4);
      }
    </style>
    <linearGradient id="Degradado_sin_nombre_4" data-name="Degradado sin nombre 4" x1="0" y1="125" x2="300" y2="125" gradientUnits="userSpaceOnUse">
      <stop offset="0" stop-color="#c4d600"/>
      <stop offset="1" stop-color="#88bf00"/>
    </linearGradient>
  </defs>
  <g id="Capa_1-2" data-name="Capa 1">
    <g>
      <rect class="cls-2" width="300" height="250"/>
      <g class="cls-1">
        <path d="M149.94,210.77c-29.47,0-58.94,0-88.4,0-8.25,0-14.9-4.55-17.65-12.07-.66-1.82-1-3.7-1-5.64,0-45.38,0-90.75,.01-136.13,0-8.42,6.4-15.9,14.74-17.35,1.43-.25,2.88-.33,4.33-.33,58.7-.01,117.4,0,176.1-.02,5.72,0,10.66,1.77,14.52,6.12,2.86,3.22,4.48,6.97,4.49,11.3,.03,18.1,.02,36.21,.02,54.31,0,27.14,0,54.28,0,81.42,0,7.62-3.54,13.1-10.23,16.59-2.65,1.38-5.56,1.8-8.53,1.8-29.47,0-58.94,0-88.4,0Zm.04-14.59c27.95,0,55.91,0,83.86,0,1.82,0,3.64,.02,5.46-.02,1.82-.04,3.22-1.47,3.31-3.3,.02-.34,.01-.67,.01-1.01,0-44.57,0-89.14,0-133.71,0-.34,0-.67,0-1.01-.01-.89-.39-1.61-.98-2.26-.92-1-2.1-1.06-3.34-1.06-58.84,0-117.68,0-176.52,0-.4,0-.81,0-1.21,.02-1.65,.11-3.04,1.5-3.16,3.15-.02,.34-.01,.67-.01,1.01,0,44.67,0,89.34,0,134.02,0,.37-.01,.74,.02,1.11,.15,1.59,1.56,2.94,3.15,3.04,.5,.03,1.01,.02,1.52,.02,29.3,0,58.6,0,87.9,0Z"/>
        <path d="M149.93,182.23c-25.45,0-50.91,0-76.36,0-.37,0-.74-.02-1.11,0-.78,.04-1.04-.31-1.04-1.09,.02-6.57,.02-13.15,0-19.72,0-.63,.23-1.08,.66-1.51,11.45-11.43,22.9-22.87,34.33-34.33,.6-.6,.96-.57,1.55,.02,5.4,5.42,10.85,10.8,16.24,16.22,.7,.71,1.08,.65,1.76-.02,18.36-18.39,36.75-36.77,55.13-55.14q1.05-1.05,2.09,0c14.85,14.85,29.7,29.7,44.57,44.54,.6,.6,.83,1.21,.83,2.05-.02,15.81-.02,31.62-.02,47.43,0,1.55,0,1.56-1.56,1.56-25.69,0-51.38,0-77.07,0Z"/>
        <path d="M71.43,89.33c0-11.91,9.55-21.45,21.48-21.46,11.95-.01,21.54,9.58,21.53,21.53-.01,11.82-9.72,21.49-21.55,21.47-11.83-.02-21.46-9.69-21.46-21.54Z"/>
      </g>
    </g>
  </g>
</svg>