<?xml version="1.0" encoding="UTF-8"?>
<svg id="Capa_2" data-name="Capa 2" xmlns="http://www.w3.org/2000/svg" viewBox="0 0 40 40">
  <g id="Capa_1-2" data-name="Capa 1">
    <g>
      <path d="M14.51,40H4.24c-2.34,0-4.24-1.9-4.24-4.24v-10.28c0-2.34,1.9-4.24,4.24-4.24H14.51c2.34,0,4.24,1.9,4.24,4.24v10.28c0,2.34-1.9,4.24-4.24,4.24ZM4.24,23.45c-1.12,0-2.03,.91-2.03,2.03v10.28c0,1.12,.91,2.03,2.03,2.03H14.51c1.12,0,2.03-.91,2.03-2.03v-10.28c0-1.12-.91-2.03-2.03-2.03H4.24Z"/>
      <path d="M14.51,18.76H4.24c-2.34,0-4.24-1.9-4.24-4.24V4.24C0,1.9,1.9,0,4.24,0H14.51c2.34,0,4.24,1.9,4.24,4.24V14.52c0,2.34-1.9,4.24-4.24,4.24ZM4.24,2.21c-1.12,0-2.03,.91-2.03,2.03V14.52c0,1.12,.91,2.03,2.03,2.03H14.51c1.12,0,2.03-.91,2.03-2.03V4.24c0-1.12-.91-2.03-2.03-2.03H4.24Z"/>
      <path d="M35.76,40h-10.27c-2.34,0-4.24-1.9-4.24-4.24v-10.28c0-2.34,1.9-4.24,4.24-4.24h10.27c2.34,0,4.24,1.9,4.24,4.24v10.28c0,2.34-1.9,4.24-4.24,4.24Zm-10.27-16.55c-1.12,0-2.03,.91-2.03,2.03v10.28c0,1.12,.91,2.03,2.03,2.03h10.27c1.12,0,2.03-.91,2.03-2.03v-10.28c0-1.12-.91-2.03-2.03-2.03h-10.27Z"/>
      <path d="M35.76,18.76h-10.27c-2.34,0-4.24-1.9-4.24-4.24V4.24c0-2.34,1.9-4.24,4.24-4.24h10.27c2.34,0,4.24,1.9,4.24,4.24V14.52c0,2.34-1.9,4.24-4.24,4.24ZM25.49,2.21c-1.12,0-2.03,.91-2.03,2.03V14.52c0,1.12,.91,2.03,2.03,2.03h10.27c1.12,0,2.03-.91,2.03-2.03V4.24c0-1.12-.91-2.03-2.03-2.03h-10.27Z"/>
    </g>
  </g>
</svg>