<?xml version="1.0" encoding="UTF-8"?>
<svg id="Capa_2" data-name="Capa 2" xmlns="http://www.w3.org/2000/svg" viewBox="0 0 40 40">
  <g id="Capa_1-2" data-name="Capa 1">
    <g>
      <path d="M35.73,18.89H4.27c-2.36,0-4.27-1.92-4.27-4.27V4.27C0,1.92,1.92,0,4.27,0h31.46c2.36,0,4.27,1.92,4.27,4.27V14.62c0,2.36-1.92,4.27-4.27,4.27ZM4.27,2.22c-1.13,0-2.05,.92-2.05,2.05V14.62c0,1.13,.92,2.05,2.05,2.05h31.46c1.13,0,2.05-.92,2.05-2.05V4.27c0-1.13-.92-2.05-2.05-2.05H4.27Z"/>
      <path d="M35.73,40H4.27c-2.36,0-4.27-1.92-4.27-4.27v-10.35c0-2.36,1.92-4.27,4.27-4.27h31.46c2.36,0,4.27,1.92,4.27,4.27v10.35c0,2.36-1.92,4.27-4.27,4.27ZM4.27,23.33c-1.13,0-2.05,.92-2.05,2.05v10.35c0,1.13,.92,2.05,2.05,2.05h31.46c1.13,0,2.05-.92,2.05-2.05v-10.35c0-1.13-.92-2.05-2.05-2.05H4.27Z"/>
    </g>
  </g>
</svg>