<?xml version="1.0" encoding="UTF-8"?>
<svg id="Capa_1" data-name="Capa 1" xmlns="http://www.w3.org/2000/svg" viewBox="0 0 250 250">
  <defs>
    <style>
      .cls-1 {
        fill: #f5f5f5;
      }

      .cls-2 {
        fill: #c4d600;
      }

      .cls-3 {
        fill: none;
        stroke: #c4d600;
        stroke-miterlimit: 10;
        stroke-width: 7.04px;
      }
    </style>
  </defs>
  <g>
    <path class="cls-2" d="M169.02,124.43c0,7.05-.07,14.1,.03,21.14,.05,3.66-1.4,6.04-4.66,7.87-12.4,6.95-24.71,14.07-36.98,21.25-2.69,1.58-4.95,1.71-7.69,.09-12.47-7.34-25-14.57-37.58-21.7-2.78-1.58-3.79-3.62-3.77-6.72,.09-14.47,.1-28.94-.01-43.42-.02-3,.99-4.93,3.6-6.41,12.58-7.15,25.12-14.36,37.61-21.66,2.95-1.72,5.36-1.63,8.36,.16,12.1,7.21,24.34,14.19,36.61,21.12,3.21,1.82,4.68,4.15,4.57,7.9-.2,6.79-.06,13.59-.06,20.39h-.01Zm-12.04-23.61c-.11-1.19-1.13-1.55-1.98-2.04-9.46-5.49-18.94-10.93-28.36-16.47-2.05-1.2-3.74-1.36-5.9-.08-9.51,5.65-19.08,11.18-28.71,16.62-2.59,1.46-2.39,2.34-.02,3.69,9.6,5.49,19.17,11.02,28.72,16.6,1.8,1.05,3.37,1.26,5.26,.16,9.77-5.71,19.58-11.32,29.37-16.98,.64-.37,1.41-.62,1.61-1.51Zm-37.04,45.6c0-5.41-.06-10.81,.03-16.22,.04-2.39-.78-3.97-2.92-5.19-9.4-5.33-18.74-10.77-28.08-16.22-2.34-1.37-3.66-1.42-3.64,1.88,.07,11.06,.04,22.13,.03,33.2,0,1.57,.22,2.97,1.78,3.86,10.02,5.77,20.04,11.55,30.03,17.37,2.18,1.27,2.84,.67,2.81-1.7-.07-5.66-.02-11.32-.03-16.97Zm41.59-18.87c0-5.65-.04-11.3,.02-16.95,.03-2.86-.96-3.27-3.37-1.85-9.3,5.49-18.61,10.96-28.01,16.27-2.4,1.35-3.32,2.97-3.29,5.69,.12,10.67,.03,21.35,.06,32.03,0,3.88,.24,3.99,3.75,1.98,9.36-5.38,18.69-10.82,28.1-16.12,2.03-1.14,2.82-2.59,2.79-4.84-.08-5.4-.03-10.8-.03-16.2Z"/>
    <path class="cls-1" d="M167.47,92.59c-.44-.19-1.16-.42-1.8-.79-3.8-2.2-7.56-4.49-11.4-6.62-1.89-1.05-2.31-1.98-.61-3.66,9.45-9.37,18.86-18.78,28.23-28.23,1.46-1.47,2.65-1.6,4.11-.1,3.14,3.25,6.3,6.47,9.5,9.66,1.53,1.53,.33,2.44-.64,3.41-6.7,6.77-13.41,13.54-20.12,20.3-1.59,1.6-3.22,3.17-4.8,4.78-.62,.63-1.19,1.31-2.48,1.26Z"/>
    <path class="cls-1" d="M94.39,166.28c-.35,.45-.74,1.08-1.26,1.6-7.34,7.4-14.69,14.78-22.04,22.16-2.04,2.05-4.1,4.07-6.13,6.12-1.29,1.31-2.46,1.43-3.83,.02-2.96-3.07-5.98-6.09-9.06-9.04-1.56-1.5-1.35-2.69,.08-4.11,8.38-8.34,16.72-16.71,25.06-25.08,1.11-1.12,2.18-1.47,3.66-.57,3.87,2.34,7.83,4.54,11.73,6.84,.72,.43,1.6,.8,1.78,2.07Z"/>
    <path class="cls-1" d="M62.78,51.96c1.16,.09,1.71,.82,2.32,1.43,9.33,9.32,18.62,18.67,27.99,27.96,1.67,1.65,1.84,2.8-.37,4.02-3.74,2.06-7.44,4.18-11.12,6.36-1.78,1.06-3.13,.92-4.65-.61-8.21-8.31-16.5-16.53-24.76-24.79-1.01-1.01-2.04-2.11-.65-3.52,3.34-3.4,6.73-6.77,10.12-10.13,.34-.34,.82-.53,1.12-.71Z"/>
    <path class="cls-1" d="M196.37,184.98c-.04,1.26-.77,1.82-1.37,2.43-2.82,2.85-5.73,5.63-8.49,8.55-1.64,1.73-2.91,1.83-4.67,.06-9.08-9.2-18.21-18.35-27.41-27.43-2.16-2.13-1.88-3.35,.73-4.73,3.55-1.87,7-3.94,10.38-6.1,1.84-1.18,3.11-.88,4.59,.61,8.3,8.38,16.66,16.7,24.99,25.05,.52,.52,.92,1.14,1.25,1.56Z"/>
  </g>
  <g>
    <path class="cls-3" d="M74.51,232.13c45.21,21.36,100.86,12.31,136.85-26.16,44.63-47.69,42.14-122.52-5.55-167.15S83.29-3.32,38.66,44.37C2.76,82.74-2.64,138.67,21.44,182.31"/>
    <circle class="cls-2" cx="23.48" cy="186.25" r="8.35"/>
    <path class="cls-2" d="M69.9,222.15c1.51,0,3.02,.55,4.21,1.66,2.49,2.33,2.62,6.23,.29,8.71-1.21,1.3-2.86,1.95-4.5,1.95-1.51,0-3.02-.55-4.21-1.66-2.49-2.33-2.62-6.23-.29-8.71,1.21-1.3,2.86-1.95,4.5-1.95m0-6.06h0c-3.37,0-6.62,1.41-8.93,3.87-4.61,4.92-4.35,12.67,.57,17.28,2.27,2.13,5.24,3.3,8.35,3.3,3.37,0,6.62-1.41,8.93-3.87,2.23-2.38,3.4-5.49,3.29-8.76s-1.48-6.29-3.87-8.52c-2.27-2.13-5.24-3.3-8.35-3.3h0Z"/>
  </g>
</svg>