<?xml version="1.0" encoding="UTF-8"?>
<svg id="Capa_2" data-name="Capa 2" xmlns="http://www.w3.org/2000/svg" xmlns:xlink="http://www.w3.org/1999/xlink" viewBox="0 0 740.75 572.23">
  <defs>
    <style>
      .cls-1, .cls-2 {
        fill: #f5f5f5;
      }

      .cls-2 {
        opacity: .15;
      }

      .cls-3 {
        fill: #c4d600;
      }
    </style>
  </defs>
  <g id="Capa_1-2" data-name="Capa 1">
    <g>
      <rect class="cls-2" x="84.9" y="238.53" width="400.35" height="253.19"/>
      <g>
        <circle class="cls-1" cx="57.71" cy="294.31" r="6.46"/>
        <circle class="cls-1" cx="57.71" cy="348.51" r="6.46"/>
        <circle class="cls-1" cx="57.71" cy="402.7" r="6.46"/>
        <circle class="cls-1" cx="57.71" cy="456.9" r="6.46"/>
        <circle class="cls-1" cx="57.71" cy="511.1" r="6.46"/>
        <circle class="cls-1" cx="106.18" cy="294.31" r="6.46"/>
        <circle class="cls-1" cx="106.18" cy="348.51" r="6.46"/>
        <circle class="cls-1" cx="106.18" cy="402.7" r="6.46"/>
        <circle class="cls-1" cx="106.18" cy="456.9" r="6.46"/>
        <circle class="cls-1" cx="106.18" cy="511.1" r="6.46"/>
        <circle class="cls-1" cx="154.64" cy="294.31" r="6.46"/>
        <circle class="cls-1" cx="154.64" cy="348.51" r="6.46"/>
        <circle class="cls-1" cx="154.64" cy="402.7" r="6.46"/>
        <circle class="cls-1" cx="154.64" cy="456.9" r="6.46"/>
        <circle class="cls-1" cx="154.64" cy="511.1" r="6.46"/>
        <circle class="cls-1" cx="203.1" cy="294.31" r="6.46"/>
        <circle class="cls-1" cx="203.1" cy="348.51" r="6.46"/>
        <circle class="cls-1" cx="203.1" cy="402.7" r="6.46"/>
        <circle class="cls-1" cx="203.1" cy="456.9" r="6.46"/>
        <circle class="cls-1" cx="203.1" cy="511.1" r="6.46"/>
        <circle class="cls-1" cx="251.56" cy="294.31" r="6.46"/>
        <circle class="cls-1" cx="251.56" cy="348.51" r="6.46"/>
        <circle class="cls-1" cx="251.56" cy="402.7" r="6.46"/>
        <circle class="cls-1" cx="251.56" cy="456.9" r="6.46"/>
        <circle class="cls-1" cx="251.56" cy="511.1" r="6.46"/>
        <circle class="cls-1" cx="300.02" cy="294.31" r="6.46"/>
        <circle class="cls-1" cx="300.02" cy="348.51" r="6.46"/>
        <circle class="cls-1" cx="300.02" cy="402.7" r="6.46"/>
        <circle class="cls-1" cx="300.02" cy="456.9" r="6.46"/>
        <circle class="cls-1" cx="300.02" cy="511.1" r="6.46"/>
        <circle class="cls-1" cx="348.48" cy="294.31" r="6.46"/>
        <circle class="cls-1" cx="348.48" cy="348.51" r="6.46"/>
        <circle class="cls-1" cx="348.48" cy="402.7" r="6.46"/>
        <circle class="cls-1" cx="348.48" cy="456.9" r="6.46"/>
        <circle class="cls-1" cx="348.48" cy="511.1" r="6.46"/>
        <circle class="cls-1" cx="396.95" cy="294.31" r="6.46"/>
        <circle class="cls-1" cx="396.95" cy="348.51" r="6.46"/>
        <circle class="cls-1" cx="396.95" cy="402.7" r="6.46"/>
        <circle class="cls-1" cx="396.95" cy="456.9" r="6.46"/>
        <circle class="cls-1" cx="396.95" cy="511.1" r="6.46"/>
        <circle class="cls-1" cx="445.41" cy="294.31" r="6.46"/>
        <circle class="cls-1" cx="445.41" cy="348.51" r="6.46"/>
        <circle class="cls-1" cx="445.41" cy="402.7" r="6.46"/>
        <circle class="cls-1" cx="445.41" cy="456.9" r="6.46"/>
        <circle class="cls-1" cx="445.41" cy="511.1" r="6.46"/>
      </g>
      <path class="cls-3" d="M567.52,346.45c-46.27,0-89.77-18.02-122.49-50.74-32.72-32.72-50.74-76.22-50.74-122.49s18.02-89.77,50.74-122.49C477.75,18.02,521.25,0,567.52,0s89.77,18.02,122.49,50.74c32.72,32.72,50.74,76.22,50.74,122.49s-18.02,89.77-50.74,122.49c-32.72,32.72-76.22,50.74-122.49,50.74Zm0-278c-57.77,0-104.78,47-104.78,104.78s47,104.78,104.78,104.78,104.78-47,104.78-104.78-47-104.78-104.78-104.78Z"/>
      <path class="cls-3" d="M85.4,572.23c-22.81,0-44.26-8.88-60.39-25.01C8.88,531.09,0,509.64,0,486.83s8.88-44.26,25.01-60.39c16.13-16.13,37.58-25.01,60.39-25.01s44.26,8.88,60.39,25.01c16.13,16.13,25.01,37.58,25.01,60.39s-8.88,44.26-25.01,60.39c-16.13,16.13-37.58,25.01-60.39,25.01Zm0-137.06c-28.48,0-51.66,23.17-51.66,51.66s23.17,51.66,51.66,51.66,51.66-23.17,51.66-51.66-23.17-51.66-51.66-51.66Z"/>
      <image width="1280" height="987" transform="translate(735.61 142.3) rotate(-171.17) scale(.28 -.28)" xlink:href="../../../../../../230308 TIENDA ELECTRONICA/public/img/portatil.png"/>
    </g>
  </g>
</svg>