<?xml version="1.0" encoding="utf-8"?>
<svg viewBox="-1362.634 -839.655 3872.708 2941.101" xmlns="http://www.w3.org/2000/svg">
  <g id="Capa_1-2" data-name="Capa 1" transform="matrix(3.212674, 0, 0, 7.637621, 65.221985, 103.458839)" style="">
    <g>
      <g transform="matrix(5.664952, 0, 0, 6.320264, -724.457947, 43.952732)" style="">
        <text style="fill: rgb(3, 3, 3); font-family: 'Bookman Old Style'; font-size: 130.08px; font-weight: 700; white-space: pre;" transform="matrix(0.287147, 0, 0, 0.120785, 51.565823, 30.095352)">G</text>
        <text style="fill: rgb(20, 0, 242); font-family: 'Bookman Old Style'; font-size: 130.08px; font-weight: 700; white-space: pre;" transform="matrix(0.287147, 0, 0, 0.120785, 78.076065, 30.09535)">A</text>
        <text style="font-family: 'Bookman Old Style'; font-size: 130.08px; font-weight: 700; white-space: pre;" transform="matrix(0.287147, 0, 0, 0.120785, 104.2771, 30.09535)">M</text>
        <text style="fill: rgb(27, 0, 242); font-family: 'Bookman Old Style'; font-size: 130.08px; font-weight: 700; white-space: pre;" transform="matrix(0.287147, 0, 0, 0.120785, 137.316681, 30.09535)">E</text>
        <text style="fill: rgb(13, 0, 242); font-family: 'Bookman Old Style'; font-size: 130.08px; font-weight: 700; white-space: pre;" transform="matrix(0.287147, 0, 0, 0.120785, 163.508347, 30.095352)">T</text>
        <text style="fill: rgb(13, 0, 242); font-family: 'Bookman Old Style'; font-size: 130.08px; font-weight: 700; white-space: pre;" transform="matrix(0.287147, 0, 0, 0.120785, 189.684021, 30.095352)">I</text>
        <text style="fill: rgb(13, 0, 242); font-family: 'Bookman Old Style'; font-size: 130.08px; font-weight: 700; white-space: pre;" transform="matrix(0.287147, 0, 0, 0.120785, 203.380981, 30.095352)"><tspan>N</tspan><tspan x="0" dy="1em">​</tspan></text>
        <text style="fill: rgb(13, 0, 242); font-family: 'Bookman Old Style'; font-size: 130.08px; font-weight: 700; white-space: pre;" transform="matrix(0.287147, 0, 0, 0.120785, 230.352234, 30.095352)">G</text>
      </g>
      <g/>
      <g style="" transform="matrix(5.606129, 0, 0, 6.254648, -551.911926, -195.601761)">
        <path class="cls-2" d="M143.97,40.38c.05-.05,.11-.1,.16-.15l-.16-.16v.31Z" style="fill: rgb(196, 214, 0);"/>
      </g>
      <g style="" transform="matrix(7.528329, 0, 0, 4.069913, -73.02845, -119.136444)">
        <polygon class="cls-1" points="23.59 7.15 21.45 9.29 14.29 16.46 16.43 18.6 23.59 11.44 28.58 16.43 29.66 17.51 37.87 25.72 37.88 25.71 40.01 23.57 40.02 23.57 31.81 15.36 30.73 14.28 25.74 9.29 30.74 4.29 35.73 9.27 37.87 7.13 30.74 0 23.59 7.15" style="fill: rgb(21, 0, 251);"/>
        <polygon class="cls-2" points="54.4 37.71 61.43 30.69 53.22 22.48 53.21 22.47 47.08 16.34 44.94 18.48 51.07 24.61 51.08 24.63 57.14 30.69 52.27 35.56 45.12 28.42 29.33 44.2 29.35 44.22 31.48 46.35 31.49 46.36 45.14 32.71 50.13 37.7 30.69 57.14 24.63 51.08 24.63 51.08 18.56 45.02 33.21 30.37 33.2 30.36 31.07 28.23 31.06 28.22 31.05 28.22 26.06 23.23 23.91 21.1 21.76 23.24 15.85 29.16 18.01 31.31 23.92 25.4 28.9 30.38 16.41 42.86 11.43 37.89 9.28 35.73 4.29 30.74 10.36 24.67 8.22 22.53 0 30.74 7.13 37.88 9.29 40.03 14.26 45.01 16.42 47.16 22.47 53.21 22.47 53.21 30.69 61.43 54.4 37.71 54.4 37.71" style="fill: rgb(196, 214, 0);"/>
      </g>
    </g>
  </g>
</svg>